<svg width="403" height="31" viewBox="0 0 403 31" fill="none" xmlns="http://www.w3.org/2000/svg">
<path d="M0.0227051 0.727362H6.09089L12.5 16.3637H12.7727L19.1818 0.727362H25.25V24.0001H20.4773V8.85236H20.2841L14.2614 23.8865H11.0114L4.98862 8.79554H4.79543V24.0001H0.0227051V0.727362ZM32.2017 30.5456C31.5881 30.5456 31.0123 30.4963 30.4744 30.3978C29.9441 30.3069 29.5047 30.1895 29.1562 30.0456L30.2472 26.4319C30.8153 26.6062 31.3267 26.7009 31.7812 26.716C32.2434 26.7312 32.6411 26.6251 32.9744 26.3978C33.3153 26.1706 33.5919 25.7842 33.804 25.2387L34.0881 24.5001L27.8267 6.54554H32.9176L36.5312 19.3637H36.7131L40.3608 6.54554H45.4858L38.7017 25.8865C38.3759 26.8259 37.9328 27.644 37.3722 28.341C36.8191 29.0456 36.1184 29.5872 35.2699 29.966C34.4214 30.3524 33.3987 30.5456 32.2017 30.5456ZM68.0852 7.42054C67.9943 6.50388 67.6042 5.79176 66.9148 5.28418C66.2254 4.7766 65.2898 4.52282 64.108 4.52282C63.3049 4.52282 62.6269 4.63645 62.0739 4.86373C61.5208 5.08342 61.0966 5.39024 60.8011 5.78418C60.5133 6.17812 60.3693 6.62509 60.3693 7.12509C60.3542 7.54176 60.4413 7.90539 60.6307 8.216C60.8277 8.52661 61.0966 8.79554 61.4375 9.02282C61.7784 9.24251 62.1723 9.4357 62.6193 9.60236C63.0663 9.76145 63.5436 9.89782 64.0511 10.0115L66.142 10.5115C67.1572 10.7387 68.089 11.0418 68.9375 11.4206C69.786 11.7993 70.5208 12.2653 71.142 12.8183C71.7633 13.3713 72.2443 14.0228 72.5852 14.7728C72.9337 15.5228 73.1117 16.3827 73.1193 17.3524C73.1117 18.7766 72.7481 20.0115 72.0284 21.0569C71.3163 22.0948 70.286 22.9016 68.9375 23.4774C67.5966 24.0456 65.9792 24.3296 64.0852 24.3296C62.2064 24.3296 60.5701 24.0418 59.1761 23.466C57.7898 22.8903 56.7064 22.038 55.9261 20.9092C55.1534 19.7728 54.7481 18.3675 54.7102 16.6933H59.4716C59.5246 17.4736 59.7481 18.1251 60.142 18.6478C60.5436 19.163 61.0777 19.5531 61.7443 19.8183C62.4186 20.0759 63.1799 20.2046 64.0284 20.2046C64.8617 20.2046 65.5852 20.0834 66.1989 19.841C66.8201 19.5986 67.3011 19.2615 67.642 18.8296C67.983 18.3978 68.1534 17.9016 68.1534 17.341C68.1534 16.8183 67.9981 16.3789 67.6875 16.0228C67.3845 15.6668 66.9375 15.3637 66.3466 15.1137C65.7633 14.8637 65.0473 14.6365 64.1989 14.4319L61.6648 13.7956C59.7027 13.3183 58.1534 12.5721 57.017 11.5569C55.8807 10.5418 55.3163 9.17433 55.3239 7.45463C55.3163 6.04554 55.6913 4.81448 56.4489 3.76145C57.214 2.70842 58.2633 1.88645 59.5966 1.29554C60.9299 0.704635 62.4451 0.40918 64.142 0.40918C65.8693 0.40918 67.3769 0.704635 68.6648 1.29554C69.9602 1.88645 70.9678 2.70842 71.6875 3.76145C72.4072 4.81448 72.7784 6.03418 72.8011 7.42054H68.0852ZM85.6222 6.54554V10.1819H75.1108V6.54554H85.6222ZM77.4972 2.36373H82.3381V18.6365C82.3381 19.0834 82.4063 19.4319 82.5426 19.6819C82.679 19.9243 82.8684 20.0948 83.1108 20.1933C83.3608 20.2918 83.6487 20.341 83.9744 20.341C84.2017 20.341 84.429 20.3221 84.6562 20.2842C84.8835 20.2387 85.0578 20.2046 85.179 20.1819L85.9403 23.7842C85.6979 23.8599 85.357 23.9471 84.9176 24.0456C84.4782 24.1516 83.9441 24.216 83.3153 24.2387C82.1487 24.2842 81.1259 24.1289 80.2472 23.7728C79.3759 23.4168 78.6979 22.8637 78.2131 22.1137C77.7282 21.3637 77.4896 20.4168 77.4972 19.2728V2.36373ZM96.5426 24.341C94.7472 24.341 93.2017 23.9774 91.9062 23.2501C90.6184 22.5153 89.6259 21.4774 88.929 20.1365C88.232 18.788 87.8835 17.1933 87.8835 15.3524C87.8835 13.5569 88.232 11.9812 88.929 10.6251C89.6259 9.26903 90.607 8.21221 91.8722 7.45463C93.1449 6.69706 94.6373 6.31827 96.3494 6.31827C97.5009 6.31827 98.5729 6.50388 99.5653 6.87509C100.565 7.23873 101.437 7.78797 102.179 8.52282C102.929 9.25767 103.512 10.1819 103.929 11.2956C104.346 12.4016 104.554 13.6971 104.554 15.1819V16.5115H89.8153V13.5115H99.9972C99.9972 12.8145 99.8456 12.1971 99.5426 11.6592C99.2396 11.1213 98.8191 10.7009 98.2812 10.3978C97.7509 10.0872 97.1335 9.93191 96.429 9.93191C95.6941 9.93191 95.0426 10.1024 94.4744 10.4433C93.9138 10.7766 93.4744 11.2274 93.1562 11.7956C92.8381 12.3562 92.6752 12.9812 92.6676 13.6706V16.5228C92.6676 17.3865 92.8267 18.1327 93.1449 18.7615C93.4706 19.3903 93.929 19.8751 94.5199 20.216C95.1108 20.5569 95.8116 20.7274 96.6222 20.7274C97.16 20.7274 97.6525 20.6516 98.0994 20.5001C98.5464 20.3486 98.929 20.1213 99.2472 19.8183C99.5653 19.5153 99.8078 19.144 99.9744 18.7046L104.452 19.0001C104.224 20.0759 103.759 21.0153 103.054 21.8183C102.357 22.6137 101.455 23.2349 100.349 23.6819C99.2509 24.1213 97.982 24.341 96.5426 24.341ZM107.713 30.5456V6.54554H112.486V9.47736H112.702C112.914 9.00767 113.221 8.53039 113.622 8.04554C114.031 7.55312 114.562 7.14403 115.213 6.81827C115.872 6.48494 116.69 6.31827 117.668 6.31827C118.94 6.31827 120.115 6.65161 121.19 7.31827C122.266 7.97736 123.126 8.97357 123.77 10.3069C124.414 11.6327 124.736 13.2956 124.736 15.2956C124.736 17.2425 124.421 18.8865 123.793 20.2274C123.171 21.5607 122.323 22.5721 121.247 23.2615C120.179 23.9433 118.982 24.2842 117.656 24.2842C116.717 24.2842 115.918 24.1289 115.259 23.8183C114.607 23.5077 114.073 23.1175 113.656 22.6478C113.24 22.1706 112.921 21.6895 112.702 21.2046H112.554V30.5456H107.713ZM112.452 15.2728C112.452 16.3107 112.596 17.216 112.884 17.9887C113.171 18.7615 113.588 19.3637 114.134 19.7956C114.679 20.2198 115.342 20.4319 116.122 20.4319C116.91 20.4319 117.577 20.216 118.122 19.7842C118.668 19.3448 119.08 18.7387 119.361 17.966C119.649 17.1857 119.793 16.288 119.793 15.2728C119.793 14.2653 119.652 13.3789 119.372 12.6137C119.092 11.8486 118.679 11.2501 118.134 10.8183C117.588 10.3865 116.918 10.1706 116.122 10.1706C115.334 10.1706 114.668 10.3789 114.122 10.7956C113.584 11.2122 113.171 11.8031 112.884 12.5683C112.596 13.3334 112.452 14.2349 112.452 15.2728ZM138.838 12.5228V16.3637H128.224V12.5228H138.838ZM143.054 24.0001V0.727362H147.895V9.47736H148.043C148.255 9.00767 148.562 8.53039 148.963 8.04554C149.372 7.55312 149.902 7.14403 150.554 6.81827C151.213 6.48494 152.031 6.31827 153.009 6.31827C154.281 6.31827 155.455 6.65161 156.531 7.31827C157.607 7.97736 158.467 8.97357 159.111 10.3069C159.755 11.6327 160.077 13.2956 160.077 15.2956C160.077 17.2425 159.762 18.8865 159.134 20.2274C158.512 21.5607 157.664 22.5721 156.588 23.2615C155.52 23.9433 154.323 24.2842 152.997 24.2842C152.058 24.2842 151.259 24.1289 150.599 23.8183C149.948 23.5077 149.414 23.1175 148.997 22.6478C148.58 22.1706 148.262 21.6895 148.043 21.2046H147.827V24.0001H143.054ZM147.793 15.2728C147.793 16.3107 147.937 17.216 148.224 17.9887C148.512 18.7615 148.929 19.3637 149.474 19.7956C150.02 20.2198 150.683 20.4319 151.463 20.4319C152.251 20.4319 152.918 20.216 153.463 19.7842C154.009 19.3448 154.421 18.7387 154.702 17.966C154.99 17.1857 155.134 16.288 155.134 15.2728C155.134 14.2653 154.993 13.3789 154.713 12.6137C154.433 11.8486 154.02 11.2501 153.474 10.8183C152.929 10.3865 152.259 10.1706 151.463 10.1706C150.675 10.1706 150.009 10.3789 149.463 10.7956C148.925 11.2122 148.512 11.8031 148.224 12.5683C147.937 13.3334 147.793 14.2349 147.793 15.2728ZM165.733 30.5456C165.119 30.5456 164.544 30.4963 164.006 30.3978C163.475 30.3069 163.036 30.1895 162.688 30.0456L163.778 26.4319C164.347 26.6062 164.858 26.7009 165.312 26.716C165.775 26.7312 166.172 26.6251 166.506 26.3978C166.847 26.1706 167.123 25.7842 167.335 25.2387L167.619 24.5001L161.358 6.54554H166.449L170.062 19.3637H170.244L173.892 6.54554H179.017L172.233 25.8865C171.907 26.8259 171.464 27.644 170.903 28.341C170.35 29.0456 169.65 29.5872 168.801 29.966C167.953 30.3524 166.93 30.5456 165.733 30.5456ZM192.369 12.5228V16.3637H181.756V12.5228H192.369ZM209.21 7.42054C209.119 6.50388 208.729 5.79176 208.04 5.28418C207.35 4.7766 206.415 4.52282 205.233 4.52282C204.43 4.52282 203.752 4.63645 203.199 4.86373C202.646 5.08342 202.222 5.39024 201.926 5.78418C201.638 6.17812 201.494 6.62509 201.494 7.12509C201.479 7.54176 201.566 7.90539 201.756 8.216C201.953 8.52661 202.222 8.79554 202.562 9.02282C202.903 9.24251 203.297 9.4357 203.744 9.60236C204.191 9.76145 204.669 9.89782 205.176 10.0115L207.267 10.5115C208.282 10.7387 209.214 11.0418 210.062 11.4206C210.911 11.7993 211.646 12.2653 212.267 12.8183C212.888 13.3713 213.369 14.0228 213.71 14.7728C214.059 15.5228 214.237 16.3827 214.244 17.3524C214.237 18.7766 213.873 20.0115 213.153 21.0569C212.441 22.0948 211.411 22.9016 210.062 23.4774C208.722 24.0456 207.104 24.3296 205.21 24.3296C203.331 24.3296 201.695 24.0418 200.301 23.466C198.915 22.8903 197.831 22.038 197.051 20.9092C196.278 19.7728 195.873 18.3675 195.835 16.6933H200.597C200.65 17.4736 200.873 18.1251 201.267 18.6478C201.669 19.163 202.203 19.5531 202.869 19.8183C203.544 20.0759 204.305 20.2046 205.153 20.2046C205.987 20.2046 206.71 20.0834 207.324 19.841C207.945 19.5986 208.426 19.2615 208.767 18.8296C209.108 18.3978 209.278 17.9016 209.278 17.341C209.278 16.8183 209.123 16.3789 208.812 16.0228C208.509 15.6668 208.063 15.3637 207.472 15.1137C206.888 14.8637 206.172 14.6365 205.324 14.4319L202.79 13.7956C200.828 13.3183 199.278 12.5721 198.142 11.5569C197.006 10.5418 196.441 9.17433 196.449 7.45463C196.441 6.04554 196.816 4.81448 197.574 3.76145C198.339 2.70842 199.388 1.88645 200.722 1.29554C202.055 0.704635 203.57 0.40918 205.267 0.40918C206.994 0.40918 208.502 0.704635 209.79 1.29554C211.085 1.88645 212.093 2.70842 212.812 3.76145C213.532 4.81448 213.903 6.03418 213.926 7.42054H209.21ZM226.747 6.54554V10.1819H216.236V6.54554H226.747ZM218.622 2.36373H223.463V18.6365C223.463 19.0834 223.531 19.4319 223.668 19.6819C223.804 19.9243 223.993 20.0948 224.236 20.1933C224.486 20.2918 224.774 20.341 225.099 20.341C225.327 20.341 225.554 20.3221 225.781 20.2842C226.009 20.2387 226.183 20.2046 226.304 20.1819L227.065 23.7842C226.823 23.8599 226.482 23.9471 226.043 24.0456C225.603 24.1516 225.069 24.216 224.44 24.2387C223.274 24.2842 222.251 24.1289 221.372 23.7728C220.501 23.4168 219.823 22.8637 219.338 22.1137C218.853 21.3637 218.615 20.4168 218.622 19.2728V2.36373ZM237.668 24.341C235.872 24.341 234.327 23.9774 233.031 23.2501C231.743 22.5153 230.751 21.4774 230.054 20.1365C229.357 18.788 229.009 17.1933 229.009 15.3524C229.009 13.5569 229.357 11.9812 230.054 10.6251C230.751 9.26903 231.732 8.21221 232.997 7.45463C234.27 6.69706 235.762 6.31827 237.474 6.31827C238.626 6.31827 239.698 6.50388 240.69 6.87509C241.69 7.23873 242.562 7.78797 243.304 8.52282C244.054 9.25767 244.637 10.1819 245.054 11.2956C245.471 12.4016 245.679 13.6971 245.679 15.1819V16.5115H230.94V13.5115H241.122C241.122 12.8145 240.971 12.1971 240.668 11.6592C240.365 11.1213 239.944 10.7009 239.406 10.3978C238.876 10.0872 238.259 9.93191 237.554 9.93191C236.819 9.93191 236.168 10.1024 235.599 10.4433C235.039 10.7766 234.599 11.2274 234.281 11.7956C233.963 12.3562 233.8 12.9812 233.793 13.6706V16.5228C233.793 17.3865 233.952 18.1327 234.27 18.7615C234.596 19.3903 235.054 19.8751 235.645 20.216C236.236 20.5569 236.937 20.7274 237.747 20.7274C238.285 20.7274 238.777 20.6516 239.224 20.5001C239.671 20.3486 240.054 20.1213 240.372 19.8183C240.69 19.5153 240.933 19.144 241.099 18.7046L245.577 19.0001C245.349 20.0759 244.884 21.0153 244.179 21.8183C243.482 22.6137 242.58 23.2349 241.474 23.6819C240.376 24.1213 239.107 24.341 237.668 24.341ZM248.838 30.5456V6.54554H253.611V9.47736H253.827C254.039 9.00767 254.346 8.53039 254.747 8.04554C255.156 7.55312 255.687 7.14403 256.338 6.81827C256.997 6.48494 257.815 6.31827 258.793 6.31827C260.065 6.31827 261.24 6.65161 262.315 7.31827C263.391 7.97736 264.251 8.97357 264.895 10.3069C265.539 11.6327 265.861 13.2956 265.861 15.2956C265.861 17.2425 265.546 18.8865 264.918 20.2274C264.296 21.5607 263.448 22.5721 262.372 23.2615C261.304 23.9433 260.107 24.2842 258.781 24.2842C257.842 24.2842 257.043 24.1289 256.384 23.8183C255.732 23.5077 255.198 23.1175 254.781 22.6478C254.365 22.1706 254.046 21.6895 253.827 21.2046H253.679V30.5456H248.838ZM253.577 15.2728C253.577 16.3107 253.721 17.216 254.009 17.9887C254.296 18.7615 254.713 19.3637 255.259 19.7956C255.804 20.2198 256.467 20.4319 257.247 20.4319C258.035 20.4319 258.702 20.216 259.247 19.7842C259.793 19.3448 260.205 18.7387 260.486 17.966C260.774 17.1857 260.918 16.288 260.918 15.2728C260.918 14.2653 260.777 13.3789 260.497 12.6137C260.217 11.8486 259.804 11.2501 259.259 10.8183C258.713 10.3865 258.043 10.1706 257.247 10.1706C256.459 10.1706 255.793 10.3789 255.247 10.7956C254.709 11.2122 254.296 11.8031 254.009 12.5683C253.721 13.3334 253.577 14.2349 253.577 15.2728ZM285.903 0.727362H290.767V16.9546C290.767 18.4546 290.43 19.7577 289.756 20.8637C289.089 21.9698 288.161 22.8221 286.972 23.4206C285.782 24.019 284.4 24.3183 282.824 24.3183C281.422 24.3183 280.15 24.0721 279.006 23.5796C277.869 23.0796 276.968 22.3221 276.301 21.3069C275.634 20.2842 275.305 19.0001 275.312 17.4546H280.21C280.225 18.0683 280.35 18.5948 280.585 19.0342C280.828 19.466 281.157 19.7993 281.574 20.0342C281.998 20.2615 282.498 20.3751 283.074 20.3751C283.68 20.3751 284.191 20.2463 284.608 19.9887C285.032 19.7236 285.354 19.3372 285.574 18.8296C285.794 18.3221 285.903 17.6971 285.903 16.9546V0.727362ZM302.631 24.341C300.866 24.341 299.339 23.966 298.051 23.216C296.771 22.4584 295.782 21.4054 295.085 20.0569C294.388 18.7009 294.04 17.1289 294.04 15.341C294.04 13.538 294.388 11.9622 295.085 10.6137C295.782 9.25767 296.771 8.20463 298.051 7.45463C299.339 6.69706 300.866 6.31827 302.631 6.31827C304.396 6.31827 305.919 6.69706 307.199 7.45463C308.487 8.20463 309.479 9.25767 310.176 10.6137C310.873 11.9622 311.222 13.538 311.222 15.341C311.222 17.1289 310.873 18.7009 310.176 20.0569C309.479 21.4054 308.487 22.4584 307.199 23.216C305.919 23.966 304.396 24.341 302.631 24.341ZM302.653 20.591C303.456 20.591 304.127 20.3637 304.665 19.9092C305.203 19.4471 305.608 18.8183 305.881 18.0228C306.161 17.2274 306.301 16.3221 306.301 15.3069C306.301 14.2918 306.161 13.3865 305.881 12.591C305.608 11.7956 305.203 11.1668 304.665 10.7046C304.127 10.2425 303.456 10.0115 302.653 10.0115C301.843 10.0115 301.161 10.2425 300.608 10.7046C300.063 11.1668 299.65 11.7956 299.369 12.591C299.097 13.3865 298.96 14.2918 298.96 15.3069C298.96 16.3221 299.097 17.2274 299.369 18.0228C299.65 18.8183 300.063 19.4471 300.608 19.9092C301.161 20.3637 301.843 20.591 302.653 20.591ZM325.562 16.5683V6.54554H330.403V24.0001H325.756V20.8296H325.574C325.18 21.8524 324.525 22.6743 323.608 23.2956C322.699 23.9168 321.589 24.2274 320.278 24.2274C319.112 24.2274 318.085 23.9622 317.199 23.4319C316.313 22.9016 315.619 22.1478 315.119 21.1706C314.627 20.1933 314.377 19.0228 314.369 17.6592V6.54554H319.21V16.7956C319.218 17.8259 319.494 18.6403 320.04 19.2387C320.585 19.8372 321.316 20.1365 322.233 20.1365C322.816 20.1365 323.362 20.0039 323.869 19.7387C324.377 19.466 324.786 19.0645 325.097 18.5342C325.415 18.0039 325.57 17.3486 325.562 16.5683ZM334.276 24.0001V6.54554H338.969V9.591H339.151C339.469 8.50767 340.003 7.68948 340.753 7.13645C341.503 6.57585 342.366 6.29554 343.344 6.29554C343.586 6.29554 343.848 6.3107 344.128 6.341C344.408 6.3713 344.654 6.41297 344.866 6.466V10.7615C344.639 10.6933 344.325 10.6327 343.923 10.5796C343.522 10.5266 343.154 10.5001 342.821 10.5001C342.109 10.5001 341.473 10.6554 340.912 10.966C340.359 11.269 339.92 11.6933 339.594 12.2387C339.276 12.7842 339.116 13.413 339.116 14.1251V24.0001H334.276ZM352.21 13.9092V24.0001H347.369V6.54554H351.983V9.62509H352.188C352.574 8.60994 353.222 7.80691 354.131 7.216C355.04 6.61751 356.142 6.31827 357.438 6.31827C358.65 6.31827 359.706 6.58342 360.608 7.11373C361.509 7.64403 362.21 8.4016 362.71 9.38645C363.21 10.3637 363.46 11.5304 363.46 12.8865V24.0001H358.619V13.7501C358.627 12.6819 358.354 11.8486 357.801 11.2501C357.248 10.644 356.487 10.341 355.517 10.341C354.866 10.341 354.29 10.4812 353.79 10.7615C353.297 11.0418 352.911 11.4509 352.631 11.9887C352.358 12.519 352.218 13.1592 352.21 13.9092ZM375.23 24.341C373.435 24.341 371.889 23.9774 370.594 23.2501C369.306 22.5153 368.313 21.4774 367.616 20.1365C366.92 18.788 366.571 17.1933 366.571 15.3524C366.571 13.5569 366.92 11.9812 367.616 10.6251C368.313 9.26903 369.295 8.21221 370.56 7.45463C371.832 6.69706 373.325 6.31827 375.037 6.31827C376.188 6.31827 377.26 6.50388 378.253 6.87509C379.253 7.23873 380.124 7.78797 380.866 8.52282C381.616 9.25767 382.2 10.1819 382.616 11.2956C383.033 12.4016 383.241 13.6971 383.241 15.1819V16.5115H368.503V13.5115H378.685C378.685 12.8145 378.533 12.1971 378.23 11.6592C377.927 11.1213 377.507 10.7009 376.969 10.3978C376.438 10.0872 375.821 9.93191 375.116 9.93191C374.382 9.93191 373.73 10.1024 373.162 10.4433C372.601 10.7766 372.162 11.2274 371.844 11.7956C371.526 12.3562 371.363 12.9812 371.355 13.6706V16.5228C371.355 17.3865 371.514 18.1327 371.832 18.7615C372.158 19.3903 372.616 19.8751 373.207 20.216C373.798 20.5569 374.499 20.7274 375.31 20.7274C375.848 20.7274 376.34 20.6516 376.787 20.5001C377.234 20.3486 377.616 20.1213 377.935 19.8183C378.253 19.5153 378.495 19.144 378.662 18.7046L383.139 19.0001C382.912 20.0759 382.446 21.0153 381.741 21.8183C381.045 22.6137 380.143 23.2349 379.037 23.6819C377.938 24.1213 376.67 24.341 375.23 24.341ZM388.92 30.5456C388.307 30.5456 387.731 30.4963 387.193 30.3978C386.663 30.3069 386.223 30.1895 385.875 30.0456L386.966 26.4319C387.534 26.6062 388.045 26.7009 388.5 26.716C388.962 26.7312 389.36 26.6251 389.693 26.3978C390.034 26.1706 390.311 25.7842 390.523 25.2387L390.807 24.5001L384.545 6.54554H389.636L393.25 19.3637H393.432L397.08 6.54554H402.205L395.42 25.8865C395.095 26.8259 394.652 27.644 394.091 28.341C393.538 29.0456 392.837 29.5872 391.989 29.966C391.14 30.3524 390.117 30.5456 388.92 30.5456Z" fill="white"/>
</svg>
